<?xml version="1.0" standalone="no"?>
<!DOCTYPE svg PUBLIC "-//W3C//DTD SVG 20010904//EN"
 "http://www.w3.org/TR/2001/REC-SVG-20010904/DTD/svg10.dtd">
<svg version="1.0" xmlns="http://www.w3.org/2000/svg"
 width="500.000000pt" height="500.000000pt" viewBox="0 0 500.000000 500.000000"
 preserveAspectRatio="xMidYMid meet">

<g transform="translate(0.000000,500.000000) scale(0.100000,-0.100000)"
fill="#000000" stroke="none">
<path d="M1187 4083 c-4 -3 -7 -503 -7 -1110 l0 -1103 1320 0 1320 0 0 1110 0
1110 -1313 0 c-723 0 -1317 -3 -1320 -7z m2623 -1108 l0 -1085 -1310 0 -1310
0 0 1085 0 1085 1310 0 1310 0 0 -1085z"/>
<path d="M1610 2930 l0 -820 450 0 450 0 0 25 0 25 -425 0 -425 0 0 380 0 380
410 0 410 0 0 25 0 25 -410 0 -410 0 2 368 3 367 423 3 c414 2 422 3 422 22 0
20 -7 20 -450 20 l-450 0 0 -820z"/>
<path d="M2810 3725 c0 -12 17 -15 100 -15 l100 0 2 -272 c2 -206 6 -272 16
-276 9 -3 12 56 12 272 l0 276 106 0 c80 0 105 3 102 13 -4 9 -59 13 -221 15
-189 2 -217 0 -217 -13z"/>
<path d="M2745 2779 c-64 -37 -92 -98 -80 -175 12 -85 102 -140 186 -115 23 7
52 24 65 38 32 35 31 12 -4 -62 -20 -40 -49 -79 -91 -117 -47 -44 -57 -58 -42
-58 31 0 124 98 156 163 20 42 29 79 33 131 5 87 -7 132 -48 171 -26 25 -40
30 -93 32 -35 2 -71 -2 -82 -8z m143 -29 c39 -24 52 -54 52 -122 0 -44 -4 -54
-35 -85 -34 -34 -38 -35 -96 -31 -81 6 -110 34 -117 111 -3 38 1 63 13 86 30
58 121 79 183 41z"/>
<path d="M3126 2758 c-9 -43 -18 -227 -11 -238 4 -6 20 0 43 15 73 50 178 24
202 -50 31 -95 -25 -185 -116 -185 -50 0 -76 10 -115 47 -31 29 -52 14 -24
-17 65 -72 218 -65 265 12 23 39 27 139 6 176 -33 61 -146 83 -213 43 l-31
-20 4 77 c3 42 7 92 10 110 l5 32 109 0 c62 0 111 4 115 10 4 6 -38 10 -119
10 -122 0 -126 -1 -130 -22z"/>
<path d="M498 1503 c8 -3 12 -30 12 -83 0 -53 -4 -80 -12 -83 -7 -3 17 -6 55
-6 63 -1 67 0 67 22 -1 20 -2 20 -11 5 -6 -12 -22 -18 -44 -18 -34 0 -35 1
-35 40 0 36 3 40 25 40 14 0 25 -4 25 -10 0 -5 5 -10 10 -10 6 0 10 11 10 25
0 14 -4 25 -10 25 -5 0 -10 -4 -10 -10 0 -5 -11 -10 -25 -10 -22 0 -25 4 -25
35 0 33 2 35 35 35 24 0 35 -5 35 -15 0 -8 5 -15 10 -15 6 0 10 9 10 20 0 18
-6 20 -67 19 -38 0 -62 -3 -55 -6z"/>
<path d="M730 1496 c-22 -28 -8 -60 38 -81 36 -17 42 -24 40 -45 -4 -35 -50
-40 -72 -8 l-16 22 0 -24 c0 -22 5 -25 41 -28 50 -3 69 11 69 50 0 25 -6 31
-46 48 -37 16 -45 24 -42 42 4 32 57 39 65 9 7 -28 23 -27 23 2 0 21 -5 24
-44 25 -27 1 -48 -3 -56 -12z"/>
<path d="M927 1503 c-11 -10 -8 -33 3 -33 6 0 10 7 10 15 0 9 9 15 25 15 25 0
25 -1 25 -79 0 -67 -3 -80 -17 -84 -10 -3 0 -5 22 -5 22 0 34 2 28 5 -9 3 -13
30 -13 84 0 72 2 79 20 79 10 0 24 -8 29 -17 9 -16 10 -16 11 5 0 21 -4 22
-68 22 -38 0 -72 -3 -75 -7z"/>
<path d="M1217 1503 c-2 -4 -15 -39 -27 -78 -12 -38 -27 -76 -33 -82 -7 -10
-2 -13 19 -13 20 0 25 3 15 9 -8 5 -11 16 -6 30 10 31 72 30 84 -1 6 -17 4
-25 -8 -30 -11 -4 -6 -7 15 -7 l31 -1 -33 87 c-30 82 -46 105 -57 86z m26 -58
l16 -45 -30 0 c-16 0 -29 3 -29 6 0 10 23 84 26 84 1 0 9 -20 17 -45z"/>
<path d="M1408 1429 c3 -60 0 -84 -10 -90 -8 -6 -1 -8 22 -8 19 0 29 3 23 6
-9 3 -13 27 -13 71 l1 67 28 -55 29 -54 30 59 31 60 1 -72 c0 -48 -4 -73 -12
-76 -7 -3 3 -5 22 -5 19 0 29 2 23 5 -9 3 -13 30 -13 83 0 53 4 80 13 83 6 3
2 6 -10 6 -18 1 -29 -12 -52 -56 l-29 -58 -27 58 c-17 36 -33 57 -43 57 -15 0
-17 -11 -14 -81z"/>
<path d="M1709 1491 c-20 -16 -24 -29 -24 -71 0 -42 4 -55 24 -71 63 -52 148
12 127 96 -15 61 -80 84 -127 46z m85 -7 c10 -10 16 -33 16 -64 0 -71 -38
-101 -86 -66 -27 20 -27 112 0 132 26 18 51 18 70 -2z"/>
<path d="M1946 1494 c-30 -29 -15 -63 35 -79 42 -14 57 -38 40 -59 -19 -23
-62 -21 -68 4 -7 28 -23 25 -23 -3 0 -21 5 -24 45 -25 37 -2 47 2 60 22 22 32
10 55 -41 77 -45 19 -54 35 -32 57 19 19 45 14 62 -10 l16 -22 0 24 c0 22 -5
25 -39 28 -25 1 -45 -3 -55 -14z"/>
<path d="M2260 1488 c1 -20 2 -21 11 -5 5 9 19 17 29 17 18 0 20 -7 20 -79 0
-54 -4 -81 -12 -84 -7 -3 5 -5 27 -5 22 0 32 2 23 5 -15 4 -18 17 -18 84 0 78
0 79 25 79 16 0 25 -6 25 -15 0 -8 5 -15 11 -15 6 0 9 8 7 18 -3 14 -16 18
-76 20 -69 3 -72 2 -72 -20z"/>
<path d="M2498 1503 c8 -3 12 -30 12 -83 0 -53 -4 -80 -12 -83 -7 -3 3 -5 22
-5 19 0 29 2 23 5 -7 2 -13 20 -13 39 0 47 29 46 55 -3 11 -21 29 -39 39 -41
17 -4 16 0 -7 28 -31 36 -33 52 -12 70 18 15 20 51 3 68 -7 7 -37 12 -67 11
-31 0 -50 -3 -43 -6z m96 -25 c15 -25 -3 -52 -38 -56 -24 -3 -26 -1 -26 38 0
39 2 41 26 38 15 -2 32 -11 38 -20z"/>
<path d="M2785 1500 c-3 -6 -17 -42 -31 -82 -13 -40 -30 -75 -37 -80 -7 -4 2
-7 23 -7 22 0 29 3 19 7 -12 5 -14 13 -8 30 12 31 74 32 84 1 5 -14 2 -25 -6
-30 -10 -6 -4 -9 18 -9 32 0 32 0 17 28 -7 15 -14 30 -14 34 0 4 -9 32 -21 63
-20 54 -31 65 -44 45z m34 -87 c1 -8 -11 -13 -28 -13 l-30 0 16 47 16 47 13
-34 c7 -19 13 -41 13 -47z"/>
<path d="M2968 1503 c8 -3 12 -30 12 -83 0 -53 -4 -80 -12 -83 -7 -3 14 -6 48
-6 34 -1 65 4 72 11 17 17 15 53 -3 68 -11 9 -13 16 -5 24 14 14 13 49 -2 64
-7 7 -37 12 -67 11 -31 0 -50 -3 -43 -6z m90 -12 c8 -4 12 -19 10 -32 -2 -19
-10 -25 -35 -27 -32 -3 -33 -2 -33 32 0 31 3 36 23 36 12 0 28 -4 35 -9z m16
-93 c16 -26 -4 -52 -43 -56 -30 -3 -31 -2 -31 38 0 40 1 41 31 38 18 -2 37
-11 43 -20z"/>
<path d="M3257 1503 c-2 -4 -15 -39 -27 -78 -12 -38 -27 -76 -33 -82 -7 -10
-2 -13 19 -13 20 0 25 3 15 9 -8 5 -11 16 -6 30 10 31 72 30 84 -1 6 -17 4
-25 -8 -30 -11 -4 -6 -7 15 -7 l31 -1 -33 87 c-30 82 -46 105 -57 86z m26 -58
l16 -45 -30 0 c-16 0 -29 3 -29 6 0 10 23 84 26 84 1 0 9 -20 17 -45z"/>
<path d="M3473 1499 c29 -17 21 -159 -9 -159 -8 0 -14 7 -14 15 0 8 -4 15 -10
15 -5 0 -10 -9 -10 -20 0 -15 7 -20 29 -20 40 0 45 11 51 103 l5 77 -30 0
c-25 -1 -27 -2 -12 -11z"/>
<path d="M3646 1428 c-16 -46 -34 -86 -40 -90 -6 -4 3 -8 19 -8 18 0 25 3 18
8 -7 4 -10 17 -6 30 4 18 13 22 43 22 30 0 39 -4 43 -22 4 -13 1 -26 -6 -30
-7 -4 3 -8 23 -8 19 0 30 4 24 8 -6 4 -23 44 -38 90 -15 45 -33 82 -39 82 -7
0 -25 -37 -41 -82z m48 28 c3 -13 9 -31 12 -40 5 -13 -1 -16 -26 -16 -25 0
-31 3 -26 16 3 9 9 27 12 40 3 13 10 24 14 24 4 0 11 -11 14 -24z"/>
<path d="M3858 1503 c8 -3 12 -30 12 -83 0 -53 -4 -80 -12 -83 -7 -3 0 -6 16
-6 23 -1 26 1 17 13 -7 9 -11 40 -9 78 l3 63 53 -77 c29 -43 57 -78 62 -78 5
0 10 41 12 90 l3 90 -25 -1 c-14 0 -19 -3 -12 -6 8 -3 12 -27 12 -71 l0 -67
-48 72 c-38 59 -52 73 -72 72 -14 0 -19 -3 -12 -6z"/>
<path d="M4118 1503 c8 -3 12 -30 12 -83 0 -53 -4 -80 -12 -83 -7 -3 9 -6 35
-6 48 -1 85 12 99 33 4 6 8 32 8 58 0 63 -30 88 -104 87 -28 0 -45 -3 -38 -6z
m100 -19 c18 -12 22 -25 22 -64 0 -53 -22 -80 -67 -80 -22 0 -23 3 -23 80 0
77 1 80 23 80 12 0 33 -7 45 -16z"/>
<path d="M4388 1500 c-27 -16 -41 -74 -28 -115 31 -94 150 -65 150 37 0 67
-67 110 -122 78z m78 -14 c14 -11 19 -26 19 -64 0 -55 -16 -82 -51 -82 -36 0
-54 26 -54 77 0 71 39 103 86 69z"/>
<path d="M1746 1204 c-9 -24 -7 -28 9 -14 17 14 20 30 6 30 -5 0 -12 -7 -15
-16z"/>
<path d="M788 1153 c8 -3 12 -30 12 -83 0 -53 -4 -80 -12 -83 -7 -3 17 -6 55
-6 61 -1 67 1 67 19 0 11 -4 20 -10 20 -5 0 -10 -7 -10 -15 0 -10 -11 -15 -35
-15 -34 0 -35 1 -35 40 0 36 3 40 24 40 13 0 27 -6 29 -12 3 -7 5 1 5 17 0 17
-2 24 -5 18 -2 -7 -16 -13 -29 -13 -21 0 -24 5 -24 35 0 33 2 35 35 35 24 0
35 -5 35 -15 0 -8 5 -15 10 -15 6 0 10 9 10 20 0 18 -6 20 -67 19 -38 0 -62
-3 -55 -6z"/>
<path d="M1018 1079 c3 -60 0 -84 -10 -90 -8 -6 -1 -8 22 -8 19 0 29 3 23 6
-9 3 -13 28 -13 76 l0 72 51 -77 c29 -43 56 -78 60 -78 5 0 9 38 9 84 0 58 4
86 13 89 6 3 -1 6 -17 6 -23 1 -26 -1 -17 -13 7 -9 11 -38 9 -73 l-3 -58 -49
73 c-67 98 -82 96 -78 -9z"/>
<path d="M1398 1153 c8 -3 12 -30 12 -83 0 -53 -4 -80 -12 -83 -7 -3 1 -5 17
-5 17 0 24 2 18 5 -9 3 -13 28 -13 76 l0 72 27 -57 c14 -32 29 -58 32 -58 4 0
19 24 33 53 l27 52 0 -67 c1 -44 -3 -68 -11 -71 -7 -3 3 -5 22 -5 19 0 29 2
23 5 -9 3 -13 30 -13 83 0 53 4 80 13 83 6 3 2 6 -10 6 -18 1 -29 -11 -51 -54
l-28 -56 -27 56 c-21 43 -32 55 -49 54 -13 0 -17 -3 -10 -6z"/>
<path d="M1706 1078 c-16 -46 -34 -86 -40 -90 -6 -4 3 -8 19 -8 18 0 25 3 18
8 -7 4 -10 17 -6 30 4 18 13 22 43 22 30 0 39 -4 43 -22 4 -13 1 -26 -6 -30
-7 -4 3 -8 23 -8 19 0 30 4 24 8 -6 4 -23 44 -38 90 -15 45 -33 82 -39 82 -7
0 -25 -37 -41 -82z m48 28 c3 -13 9 -31 12 -40 5 -13 -1 -16 -26 -16 -25 0
-31 3 -26 16 3 9 9 27 12 40 3 13 10 24 14 24 4 0 11 -11 14 -24z"/>
<path d="M1927 1139 c-22 -30 -10 -56 34 -73 44 -18 57 -39 39 -61 -19 -22
-61 -19 -67 5 -7 28 -23 25 -23 -3 0 -21 5 -24 44 -25 93 -4 104 81 14 103
-32 8 -44 33 -24 53 18 18 66 8 66 -13 0 -8 5 -15 10 -15 6 0 10 11 10 23 0
21 -5 24 -44 25 -35 2 -48 -2 -59 -19z"/>
<path d="M2258 1079 c3 -60 0 -84 -10 -90 -8 -6 1 -9 27 -9 32 1 36 3 23 11
-11 6 -18 22 -18 39 0 26 4 30 28 30 35 0 72 26 72 50 0 32 -28 50 -78 50
l-47 0 3 -81z m92 52 c5 -11 7 -27 4 -35 -7 -18 -47 -31 -63 -21 -12 7 -15 58
-4 68 13 14 53 6 63 -12z"/>
<path d="M2478 1153 c8 -3 12 -30 12 -83 0 -53 -4 -80 -12 -83 -7 -3 3 -5 22
-5 19 0 29 2 23 5 -18 7 -17 73 0 73 8 0 25 -17 38 -37 13 -21 33 -39 44 -40
11 -2 14 0 7 3 -7 3 -21 23 -31 43 -19 37 -19 37 0 49 25 16 25 58 0 72 -11 5
-41 10 -68 9 -26 0 -42 -3 -35 -6z m90 -15 c18 -18 14 -46 -7 -58 -38 -20 -51
-13 -51 30 0 35 3 40 23 40 13 0 28 -5 35 -12z"/>
<path d="M2721 1134 c-46 -58 -13 -154 53 -154 18 0 40 6 49 13 38 27 38 127
1 154 -31 23 -80 16 -103 -13z m91 -1 c24 -21 25 -99 1 -125 -39 -43 -93 -6
-93 64 0 64 51 98 92 61z"/>
<path d="M2970 1111 c31 -50 40 -115 18 -124 -7 -3 5 -6 27 -6 32 0 36 2 23
10 -10 5 -18 19 -18 30 0 22 34 95 58 122 14 16 13 17 -14 17 -19 0 -25 -3
-16 -9 10 -6 8 -16 -9 -46 l-22 -37 -20 37 c-15 31 -16 39 -5 46 9 6 2 9 -19
9 l-33 0 30 -49z"/>
<path d="M3178 1153 c8 -3 12 -30 12 -83 0 -53 -4 -80 -12 -83 -7 -3 20 -6 60
-6 66 -1 72 1 72 19 0 11 -4 20 -10 20 -5 0 -10 -7 -10 -15 0 -11 -11 -15 -40
-15 l-40 0 0 40 c0 36 3 40 25 40 14 0 25 -4 25 -10 0 -5 5 -10 10 -10 6 0 10
12 10 27 0 21 -3 24 -12 15 -7 -7 -22 -12 -35 -12 -20 0 -23 5 -23 35 0 33 2
35 35 35 22 0 38 -6 44 -17 9 -16 10 -16 11 5 0 21 -4 22 -67 21 -38 0 -62 -3
-55 -6z"/>
<path d="M3420 1140 c-28 -28 -28 -112 0 -140 24 -24 72 -26 94 -4 24 23 20
25 -13 7 -27 -16 -30 -16 -55 0 -22 15 -26 25 -26 66 0 58 24 87 65 77 14 -4
25 -13 25 -21 0 -8 5 -15 10 -15 6 0 10 11 10 23 0 21 -5 24 -45 25 -33 2 -50
-3 -65 -18z"/>
<path d="M3620 1140 c0 -11 5 -20 10 -20 6 0 10 7 10 15 0 8 9 15 20 15 18 0
20 -7 20 -79 0 -54 -4 -81 -12 -84 -7 -3 5 -6 26 -6 35 -1 38 1 22 12 -14 10
-16 25 -14 82 3 64 5 70 26 73 15 2 22 -2 22 -12 0 -9 5 -16 10 -16 6 0 10 9
10 20 0 18 -7 20 -75 20 -68 0 -75 -2 -75 -20z"/>
<path d="M3888 1150 c-27 -16 -41 -74 -28 -115 31 -94 150 -65 150 37 0 67
-67 110 -122 78z m78 -14 c14 -11 19 -26 19 -64 0 -55 -16 -82 -51 -82 -36 0
-54 26 -54 77 0 71 39 103 86 69z"/>
<path d="M4117 1139 c-22 -30 -10 -56 34 -73 44 -18 57 -39 39 -61 -19 -22
-61 -19 -67 5 -7 28 -23 25 -23 -3 0 -21 5 -24 44 -25 93 -4 104 81 14 103
-32 8 -44 33 -24 53 18 18 66 8 66 -13 0 -8 5 -15 10 -15 6 0 10 11 10 23 0
21 -5 24 -44 25 -35 2 -48 -2 -59 -19z"/>
</g>
</svg>
